<svg xmlns="http://www.w3.org/2000/svg" viewBox="0 0 240 64" width="240" height="64" role="img" aria-label="Roam">
  <defs>
    <linearGradient id="bg" x1="8" y1="4" x2="56" y2="60" gradientUnits="userSpaceOnUse">
      <stop offset="0" stop-color="#172033"/>
      <stop offset=".55" stop-color="#0b1020"/>
      <stop offset="1" stop-color="#05070d"/>
    </linearGradient>
    <linearGradient id="stroke" x1="9" y1="7" x2="55" y2="58" gradientUnits="userSpaceOnUse">
      <stop offset="0" stop-color="#5eead4"/>
      <stop offset=".45" stop-color="#58a6ff"/>
      <stop offset="1" stop-color="#8b5cf6"/>
    </linearGradient>
    <linearGradient id="panel" x1="14" y1="17" x2="50" y2="48" gradientUnits="userSpaceOnUse">
      <stop offset="0" stop-color="#111827"/>
      <stop offset="1" stop-color="#07111f"/>
    </linearGradient>
    <linearGradient id="word" x1="76" y1="14" x2="168" y2="48" gradientUnits="userSpaceOnUse">
      <stop offset="0" stop-color="#2563eb"/>
      <stop offset=".48" stop-color="#38bdf8"/>
      <stop offset="1" stop-color="#7c3aed"/>
    </linearGradient>
    <filter id="soft-glow" x="-50%" y="-50%" width="200%" height="200%">
      <feGaussianBlur stdDeviation="1.4" result="blur"/>
      <feMerge>
        <feMergeNode in="blur"/>
        <feMergeNode in="SourceGraphic"/>
      </feMerge>
    </filter>
  </defs>

  <g>
    <rect x="2" y="2" width="60" height="60" rx="15" fill="url(#bg)"/>
    <rect x="3" y="3" width="58" height="58" rx="14" fill="none" stroke="#263244" stroke-width="1.5"/>
    <path d="M13 26C17 15 27 10 38 13C48 16 54 25 52 36" fill="none" stroke="url(#stroke)" stroke-width="2.6" stroke-linecap="round" opacity=".95"/>
    <path d="M51 38L55 33L57 39" fill="none" stroke="#58a6ff" stroke-width="2.3" stroke-linecap="round" stroke-linejoin="round"/>
    <g opacity=".82" stroke="url(#stroke)" stroke-width="1.3" stroke-linecap="round">
      <path d="M19 20L28 28"/>
      <path d="M45 21L37 29"/>
      <path d="M46 45L38 37"/>
    </g>
    <rect x="14" y="19" width="36" height="28" rx="7" fill="url(#panel)" stroke="url(#stroke)" stroke-width="1.6" filter="url(#soft-glow)"/>
    <rect x="18" y="23" width="28" height="20" rx="4.5" fill="#050b14" stroke="#1f3147"/>
    <path d="M23 29L28 33L23 37" fill="none" stroke="#5eead4" stroke-width="2.7" stroke-linecap="round" stroke-linejoin="round"/>
    <path d="M31 38H39" stroke="#58a6ff" stroke-width="2.7" stroke-linecap="round"/>
    <rect x="39.8" y="29.6" width="3.8" height="3.8" rx="1" fill="#8b5cf6"/>
    <circle cx="18" cy="20" r="3.2" fill="#06131f" stroke="#5eead4" stroke-width="1.8"/>
    <circle cx="45" cy="21" r="3.2" fill="#06131f" stroke="#3fb950" stroke-width="1.8"/>
    <circle cx="46" cy="45" r="3.2" fill="#06131f" stroke="#8b5cf6" stroke-width="1.8"/>
    <circle cx="32" cy="33" r="2.4" fill="#58a6ff"/>
  </g>

  <text x="78" y="40" font-family="Inter, ui-sans-serif, system-ui, -apple-system, BlinkMacSystemFont, Segoe UI, sans-serif"
        font-size="31" font-weight="800" fill="url(#word)">Roam</text>
  <text x="80" y="54" font-family="Inter, ui-sans-serif, system-ui, sans-serif"
        font-size="8.5" font-weight="700" letter-spacing="3.8" fill="#475569">ANYWHERE · ANYTIME</text>
</svg>
